<svg xmlns="http://www.w3.org/2000/svg" viewBox="0 0 600.93 111.39"><title>Ambavi</title><g id="Divider"><line id="Path" y1="83.56" x2="600.93" y2="83.56" fill="#fff"/><rect y="82.81" width="600.93" height="1.5" fill="#fff"/></g><g id="En"><g id="a1"><path d="M251.74,131.79a35.55,35.55,0,0,0-2-4.13c-.51-1-.93-2.06-1.4-3.1l-2.19-4.83a3,3,0,0,0-.53-.89,1,1,0,0,0-.92-.35c-.65.12-1,1.12-1.23,1.62-.39.78-.77,1.56-1.15,2.35-.76,1.56-1.51,3.14-2.24,4.72l-.81,1.75a11,11,0,0,0-.92,2.79,1.32,1.32,0,0,0,.11,1.08,1,1,0,0,0,.94.51c.51-.09.8-.62,1-1.1,1.32-3,2.67-6,4-9a2.52,2.52,0,0,1,.24-.42c.26-.29.45-.19.59.12,1.3,3,2.7,5.89,4.05,8.83a4.66,4.66,0,0,0,.56,1,1.53,1.53,0,0,0,1,.6.94.94,0,0,0,1-.46A1.48,1.48,0,0,0,251.74,131.79Z" transform="translate(0.36 -22.84)" fill="#fff"/></g><g id="a2"><path d="M328.08,131.7a35.55,35.55,0,0,0-2-4.13c-.51-1-.93-2.06-1.4-3.1l-2.19-4.83a3,3,0,0,0-.53-.88,1,1,0,0,0-.92-.36c-.65.13-1,1.13-1.23,1.63-.39.77-.77,1.56-1.15,2.34q-1.14,2.35-2.24,4.72l-.81,1.76a10.94,10.94,0,0,0-.92,2.78,1.39,1.39,0,0,0,.11,1.09,1,1,0,0,0,.94.51c.51-.09.8-.63,1-1.11,1.32-3,2.67-6,4-9a1.91,1.91,0,0,1,.24-.42c.26-.3.45-.19.59.12,1.3,3,2.71,5.88,4.05,8.82a4.74,4.74,0,0,0,.56,1,1.62,1.62,0,0,0,1,.6,1,1,0,0,0,1-.47A1.48,1.48,0,0,0,328.08,131.7Z" transform="translate(0.36 -22.84)" fill="#fff"/></g><g id="v"><path d="M353,120.31a37.25,37.25,0,0,1-2,4.13c-.52,1-.94,2.06-1.41,3.1l-2.18,4.83a3.18,3.18,0,0,1-.53.89,1,1,0,0,1-.93.35c-.64-.12-1-1.12-1.22-1.62-.39-.78-.78-1.56-1.16-2.35-.76-1.56-1.5-3.14-2.24-4.72-.27-.58-.54-1.17-.8-1.75a11.14,11.14,0,0,1-.92-2.79,1.36,1.36,0,0,1,.1-1.08,1,1,0,0,1,.95-.51c.51.08.8.62,1,1.1,1.32,3,2.66,6,4,9a1.58,1.58,0,0,0,.24.42c.26.3.44.2.58-.12,1.31-3,2.71-5.88,4.05-8.82a4.77,4.77,0,0,1,.57-1,1.53,1.53,0,0,1,1-.59,1,1,0,0,1,1,.46A1.48,1.48,0,0,1,353,120.31Z" transform="translate(0.36 -22.84)" fill="#fff"/></g><g id="m"><path d="M277.75,131.29c-.07-2.76-.14-5.52-.13-8.28a6.09,6.09,0,0,1,.16-2.13c.12-.34.29-.66.39-1a1.41,1.41,0,0,0-.05-1,1.26,1.26,0,0,0-1.38-.5,3.7,3.7,0,0,0-1.38.74l-3.29,2.46a2.29,2.29,0,0,1-1.55.63,2.22,2.22,0,0,1-1.06-.53l-3.22-2.4a4.94,4.94,0,0,0-1.13-.7,1.63,1.63,0,0,0-1.3,0,1.13,1.13,0,0,0-.52,1.3,1.74,1.74,0,0,0,.28.64,3.49,3.49,0,0,1,.15,1.45c.11,3-.08,6.12-.15,9.18,0,.51-.14,1.42.23,1.82s1,.62,1.38.23a1.38,1.38,0,0,0,.27-1l.24-10.74,3.23,2.26a2.32,2.32,0,0,0,3.37-.07l2.19-1.54c.22-.15.86-.65,1.09-.28a.75.75,0,0,1,.06.39c-.06,1.41,0,2.84,0,4.25v2.59c0,.78-.06,1.56-.05,2.33a2,2,0,0,0,.56,1.66,1.27,1.27,0,0,0,1.25,0c.35-.23.35-.78.34-1.16Z" transform="translate(0.36 -22.84)" fill="#fff"/></g><g id="b"><path d="M300.91,126.11a4,4,0,0,0,1.75-3.62,3.65,3.65,0,0,0-2.16-3,7.07,7.07,0,0,0-2.59-.41c-1.15,0-2.3-.09-3.45-.09a7,7,0,0,1-1.65,0c-.35-.09-.32-.59-.57-.84a1.56,1.56,0,0,0-1.44-.3.53.53,0,0,0-.37.26,1.39,1.39,0,0,0-.09.54c0,.74,0,1.48,0,2.23-.07,3.38-.09,6.78,0,10.16,0,.64,0,1.28.05,1.91a1.06,1.06,0,0,0,1.31,1.27,1.26,1.26,0,0,0,.88-.25c.1-.1.17-.24.26-.35a.66.66,0,0,1,.36-.23,1.73,1.73,0,0,1,.71,0,16.77,16.77,0,0,0,1.74,0c.56,0,1.07,0,1.63-.06a6.4,6.4,0,0,0,3.45-.74,4.23,4.23,0,0,0,1.86-3.08,4.14,4.14,0,0,0-.38-2.11C302,127.26,301.28,125.9,300.91,126.11Zm-.67,3.74c-.48,1.2-1.85,1.3-3,1.29-.9,0-1.79,0-2.69-.09-.44,0-.89,0-1.33-.09s-.64-.05-.81-.34a2.06,2.06,0,0,1-.17-1v-1.23c0-.34-.12-1,.21-1.23a2.8,2.8,0,0,1,1.41-.15l3.16.11a4.2,4.2,0,0,1,2.6.55A2,2,0,0,1,300.24,129.85Zm-.25-5.69a2.67,2.67,0,0,1-1.91.89c-.61,0-1.21,0-1.81,0s-1.25,0-1.87,0l-.88-.07a2.93,2.93,0,0,1-.84-.09c-.39-.18-.27-.73-.28-1.06l-.06-1.8c0-.48.06-.91.64-.9,1.7,0,3.38.07,5.08.08a3.55,3.55,0,0,1,1.26.16,1.87,1.87,0,0,1,1.09,1.36A1.92,1.92,0,0,1,300,124.16Z" transform="translate(0.36 -22.84)" fill="#fff"/></g><g id="i"><path d="M366.79,133.21a1.37,1.37,0,0,0,.32-.69,7.9,7.9,0,0,0,0-1.09c0-.33,0-.66,0-1L367,127l-.07-3.72,0-1.91c0-.3,0-.59,0-.88a6.26,6.26,0,0,0,0-.75.82.82,0,0,0-.38-.6,1.25,1.25,0,0,0-.69-.07c-.37,0-1-.07-1.15.34a1.27,1.27,0,0,0-.08.51c-.05,1.65,0,3.28,0,4.94,0,2.58,0,5.15,0,7.73a1.12,1.12,0,0,0,.17.67,1.06,1.06,0,0,0,.74.28,1.85,1.85,0,0,0,1-.1A1.3,1.3,0,0,0,366.79,133.21Z" transform="translate(0.36 -22.84)" fill="#fff"/></g></g><g id="Ka"><g id="a1-2" data-name="a1"><path d="M243.66,48.84a6.36,6.36,0,0,0,1.85,4.1c1,1.14,2.25,2.08,3.28,3.22a6.4,6.4,0,0,1,1.9,4.07,4.54,4.54,0,0,1-4.52,4.4,4.83,4.83,0,0,1-4.48-4.57,5.62,5.62,0,0,0-.14-2A2.14,2.14,0,0,0,238.93,57,3.09,3.09,0,0,0,237,59.24a5.57,5.57,0,0,0,.32,3.07,9.57,9.57,0,0,0,15.41,3.89,8.54,8.54,0,0,0,2.46-6.79,6.89,6.89,0,0,0-.77-2.63,10.65,10.65,0,0,0-2.11-2.53,45.18,45.18,0,0,1-3.42-3.36,9.46,9.46,0,0,1-2.22-4.19,2.27,2.27,0,0,0-.26-.81c-.5-.75-1.5.18-1.89.63A3.65,3.65,0,0,0,243.66,48.84Z" transform="translate(0.36 -22.84)" fill="#fff"/></g><g id="a2-2" data-name="a2"><path d="M314.9,48.84a6.35,6.35,0,0,0,1.84,4.1c1,1.14,2.25,2.08,3.28,3.22a6.47,6.47,0,0,1,1.91,4.07,4.55,4.55,0,0,1-4.53,4.4,4.82,4.82,0,0,1-4.47-4.57,5.85,5.85,0,0,0-.15-2A2.14,2.14,0,0,0,310.17,57a3,3,0,0,0-1.91,2.28,5.57,5.57,0,0,0,.31,3.07A9.59,9.59,0,0,0,324,66.2a8.54,8.54,0,0,0,2.45-6.79,6.89,6.89,0,0,0-.77-2.63,10.42,10.42,0,0,0-2.11-2.53,45,45,0,0,1-3.41-3.36,9.48,9.48,0,0,1-2.23-4.19,2.07,2.07,0,0,0-.25-.81c-.5-.75-1.51.18-1.9.63A3.59,3.59,0,0,0,314.9,48.84Z" transform="translate(0.36 -22.84)" fill="#fff"/></g><g id="m-2" data-name="m"><path d="M278.64,54c.07-4.54.2-9.07.08-13.6q-.11-4-.35-7.91c-.13-2.12-.22-4.11-1.33-6-1.78-3-5.69-4-8.94-3.53a10.44,10.44,0,0,0-5.9,2.79c-2.64,2.62-3.35,6.73-2.58,10.37a7.13,7.13,0,0,0,1.86,3.77,3.47,3.47,0,0,0,3.92.72,2.77,2.77,0,0,0,1.24-3.25,2.44,2.44,0,0,0-1.28-1.43c-.68-.27-1.3-.13-1.83-.77a3.13,3.13,0,0,1-.65-1.82,5.86,5.86,0,0,1,1.8-4.59,6.34,6.34,0,0,1,4.66-1.69,5.26,5.26,0,0,1,4,2.06,8.28,8.28,0,0,1,1.12,4.5c.28,5.83.09,11.67-.11,17.5a7.7,7.7,0,0,0-6-.77,11.2,11.2,0,0,0-5.26,3.37,8.84,8.84,0,0,0-2.6,6.32c.24,3.76,2.78,6.44,6.26,7.63a11,11,0,0,0,3.31.58,10.22,10.22,0,0,0,3.27-.12,7.46,7.46,0,0,0,3.59-2.72C279.39,62,278.59,57.9,278.64,54Zm-4.05,4.89c-.19,1.73-.47,3.64-1.8,4.77a4.24,4.24,0,0,1-3.24.87,5.22,5.22,0,0,1-3.75-8,2.58,2.58,0,0,1,1.38-1.62,7.22,7.22,0,0,1,2.48-.55,9.11,9.11,0,0,1,2.39,0,3.12,3.12,0,0,1,2.05,1.14A4.77,4.77,0,0,1,274.59,58.86Z" transform="translate(0.36 -22.84)" fill="#fff"/></g><g id="b-2" data-name="b"><path d="M302,56.32A8.78,8.78,0,0,0,300.62,54a9.1,9.1,0,0,0-2.14-1.92A8.73,8.73,0,0,0,296,51c-.36-.1-.71-.13-.86-.52s.07-.81.17-1.2c.15-.61.32-1.21.48-1.81.33-1.18.68-2.36,1-3.53.62-2,1.71-4.24,1.09-6.36-.46-1.55-1.79-2.67-3.05-3.7l-5.11-4.14a3.85,3.85,0,0,1-1.18-1.33,1.28,1.28,0,0,1,.37-1.59,5.73,5.73,0,0,1,.94-.3,1.57,1.57,0,0,0,.85-1.81,2.14,2.14,0,0,0-1.49-1.47,3.52,3.52,0,0,0-2.15.11,3.75,3.75,0,0,0-1.87,1.06,4.78,4.78,0,0,0-.67,2,5.81,5.81,0,0,0,.63,3.14,10,10,0,0,0,.46,1.23,4,4,0,0,0,1.08,1l4.06,2.93a8.68,8.68,0,0,1,2.17,2,4.24,4.24,0,0,1,.7,2.6,31,31,0,0,1-.65,6c-.2,1-.44,2-.71,3q-.19.73-.42,1.47c-.13.41-.28.48-.69.62-2.1.74-4.11,1.72-5.26,3.69a10.88,10.88,0,0,0-1.26,3.29,7.94,7.94,0,0,0,0,3.22,10.9,10.9,0,0,0,3,5.55,3.87,3.87,0,0,0,1.15.81,13.17,13.17,0,0,0,4.36,1.31,8.27,8.27,0,0,0,4.45-.73c.16-.08.32-.16.47-.25A9.21,9.21,0,0,0,302,56.32Zm-4,5a3.58,3.58,0,0,1-.76,1.31,6.39,6.39,0,0,1-1.33,1,4.93,4.93,0,0,1-4.78,0,13.11,13.11,0,0,1-1.44-1.11,2.53,2.53,0,0,1-.78-1.42,6.92,6.92,0,0,1,.25-4,4,4,0,0,1,.72-1.34,4.94,4.94,0,0,1,2.29-1.21,6,6,0,0,1,3.73.23,5.1,5.1,0,0,1,2.31,3A5.27,5.27,0,0,1,297.91,61.3Z" transform="translate(0.36 -22.84)" fill="#fff"/></g><g id="v-2" data-name="v"><path d="M346.4,68a16.26,16.26,0,0,0,.35-3.26,4.38,4.38,0,0,0-1.91-3.89,4.16,4.16,0,0,0-3.36-.33,9.15,9.15,0,0,0,3.81-3.66,5.93,5.93,0,0,0-5-8.94A8.85,8.85,0,0,0,331,55.22a2.69,2.69,0,0,0,.05,1.23,1.19,1.19,0,0,0,.85.82c.6.12,1.13-.36,1.54-.8s1.2-1.06,1.69-1.65a11.75,11.75,0,0,1,1.8-2.12,3.34,3.34,0,0,1,3.18-.64,3.11,3.11,0,0,1,1.7,3.3,5.74,5.74,0,0,1-2,3.37c-1,.9-2.15,1.59-3.21,2.39a7.58,7.58,0,0,0-2.56,3c-.38.94-.35,2.22.53,2.72a1.92,1.92,0,0,0,1.89-.15,8,8,0,0,0,1.47-1.33A5.88,5.88,0,0,1,339.83,64a2.8,2.8,0,0,1,2.32,0c1.63.86,1,3.34.78,4.8-1.23,7.55-2.75,15-3.16,22.67-.12,2.25.52,5.25,3.3,5.49.43-4.83.4-9.67.93-14.49S345.56,72.8,346.4,68Z" transform="translate(0.36 -22.84)" fill="#fff"/></g><g id="i-2" data-name="i"><path d="M358.74,65.51a1.73,1.73,0,0,1-1.25,2.62,3.1,3.1,0,0,1-1.27-.22,6.19,6.19,0,0,1-4-4.45,13.52,13.52,0,0,1-.22-4.91,12.35,12.35,0,0,1,1.56-5A9.34,9.34,0,0,1,357,50c2.41-1.32,5.06-1,7.5,0A6.18,6.18,0,0,1,367.41,53a11.07,11.07,0,0,1,.61,8.84,9.51,9.51,0,0,1-1.75,3.44,2.19,2.19,0,0,1-.67.54.85.85,0,0,1-.82-.06.9.9,0,0,1-.29-.58,2.88,2.88,0,0,1,0-.65c.2-1.33.5-2.66.57-4a15.12,15.12,0,0,0-.32-4,7,7,0,0,0-1.07-2.68,3.51,3.51,0,0,0-2.37-1.53,4.06,4.06,0,0,0-3,1.15,8.24,8.24,0,0,0-1.79,2.32,5.82,5.82,0,0,0-.5,2.75,10.39,10.39,0,0,0,.71,3.78,6.52,6.52,0,0,0,.92,1.8A6.1,6.1,0,0,1,358.74,65.51Z" transform="translate(0.36 -22.84)" fill="#fff"/></g></g></svg>