<svg id="Layer_1" data-name="Layer 1" xmlns="http://www.w3.org/2000/svg" viewBox="0 0 874.98 127.28"><title>Ambavi1</title><path d="M630.31,595.29c-5.11,0-9.79-3.67-9.79-8.06,0-2.81,1-4.25,3-4.25a1.34,1.34,0,0,1,1.52,1.51l-.87,3c0,2.31,2.95,4.25,6,4.25,4.25,0,6.33-1.8,6.33-5.4,0-1.65-1.36-3.74-4.17-6.41s-4.25-4.6-4.25-5.76c0-1.51,1.37-4,2.66-4,0,4.25,4.11,7,7,9.65a9,9,0,0,1,2.45,6.34C640.18,591.55,635.78,595.29,630.31,595.29Z" transform="translate(-262.51 -543.89)" fill="#fff" stroke="#fff" stroke-miterlimit="10"/><path d="M667.25,585.07c0,5.76-4.18,10.22-9.86,10.22-6,0-9.87-3.88-9.87-9.79s4.32-9.79,9.87-9.79a13.38,13.38,0,0,1,6.12,1.37V561c0-9.8-1.66-12.68-6.12-13-4.9.22-7.93,2.88-7.93,7.71a7.81,7.81,0,0,0,.51,3c2.59,0,3.6.87,3.6,2.81,0,1.73-1,2.59-3.1,2.59-3.09,0-4.68-2.88-4.68-8.64v-.29c0-6,5.26-10.72,11.6-10.72,6.84,0,9.86,3.81,9.86,16.56Zm-3.74-4.47a15,15,0,0,0-6.2-1.44c-4.1.08-6.12,2.24-6.12,6.34s2,6.12,6.12,6.12,6.2-2.66,6.2-8.14Z" transform="translate(-262.51 -543.89)" fill="#fff" stroke="#fff" stroke-miterlimit="10"/><path d="M682.94,575.78c.51-2.81.72-5,1.08-6.19.36-1.37.65-2.59.94-3.75a9.89,9.89,0,0,0,.5-3.09c0-3.46-1.58-4-8.06-8.93a7.31,7.31,0,0,1-2.81-5.91,3.48,3.48,0,0,1,3.67-3.52c1.73,0,2.59.93,2.59,2.8a2.22,2.22,0,0,0-.64-.07c-1.3,0-2,.43-2,1.37,0,3.46,1.59,3.53,8,8.42a6.91,6.91,0,0,1,2.8,5.48,17.85,17.85,0,0,1-.86,4.17c-.29,1-.65,2.09-1,3.32s-.72,3.24-1.22,6a9.78,9.78,0,1,1-11.31,9.65A10,10,0,0,1,682.94,575.78Zm1.44,16a6.17,6.17,0,0,0,6.2-6.27,6.16,6.16,0,1,0-12.32,0A6.2,6.2,0,0,0,684.38,591.77Z" transform="translate(-262.51 -543.89)" fill="#fff" stroke="#fff" stroke-miterlimit="10"/><path d="M711.38,595.29c-5.11,0-9.79-3.67-9.79-8.06,0-2.81,1-4.25,3-4.25a1.34,1.34,0,0,1,1.51,1.51l-.87,3c0,2.31,3,4.25,6,4.25,4.25,0,6.34-1.8,6.34-5.4,0-1.65-1.37-3.74-4.18-6.41s-4.25-4.6-4.25-5.76c0-1.51,1.37-4,2.67-4,0,4.25,4.1,7,7,9.65a8.92,8.92,0,0,1,2.45,6.34C721.25,591.55,716.86,595.29,711.38,595.29Z" transform="translate(-262.51 -543.89)" fill="#fff" stroke="#fff" stroke-miterlimit="10"/><path d="M738.72,587.35A7.37,7.37,0,0,1,741,587a4.18,4.18,0,0,1,3.18,1.32,6.11,6.11,0,0,1,1.24,4.28,18.37,18.37,0,0,1-.41,3.72q-1.14,4.13-1.86,7.89T742,611.74q-.48,3.76-.72,7.3c-.17,2.35-.34,5.3-.51,8.83a4.81,4.81,0,0,1-3.29-4.72q.18-3.51.68-7.22t1.59-10.24c.74-4.35,1.18-7.06,1.34-8.11a31,31,0,0,0,.64-4.45,4.8,4.8,0,0,0-.23-1.62,2.11,2.11,0,0,0-2-1.31,4.71,4.71,0,0,0-2.2.65,28.09,28.09,0,0,0-2.73,1.76,15.48,15.48,0,0,1-2.19,1.42c-1.17-.17-1.76-.7-1.76-1.58a4.38,4.38,0,0,1,1-2.44,9.25,9.25,0,0,1,1.63-1.86l3.1-2.61a20.77,20.77,0,0,0,2.45-2.39,7.15,7.15,0,0,0,1.36-2.27,2.67,2.67,0,0,0,.18-1,4,4,0,0,0-.71-2.13,2.35,2.35,0,0,0-2-1,5.67,5.67,0,0,0-3.66,1.16,15.83,15.83,0,0,0-2.84,3.07,7.89,7.89,0,0,1-2.08,2.24,2.18,2.18,0,0,1-.53.12,1.17,1.17,0,0,1-1.08-.7,3.47,3.47,0,0,1-.39-1.7,4.06,4.06,0,0,1,.21-1.32,8.25,8.25,0,0,1,1.46-2.9,10.19,10.19,0,0,1,2.67-2.49,10.49,10.49,0,0,1,5.83-1.76,6.48,6.48,0,0,1,3.46,1c2.2,1,3.31,3.28,3.31,6.68a5.47,5.47,0,0,1-1.29,3.32A42.06,42.06,0,0,1,738.72,587.35Z" transform="translate(-262.51 -543.89)" fill="#fff" stroke="#fff" stroke-miterlimit="10" stroke-width="0.2"/><line x1="33.51" y1="95.25" x2="868.4" y2="95.25" fill="#fff" stroke="#fff" stroke-miterlimit="10"/><rect x="0.5" y="94.73" width="873.98" height="1.05" fill="#fff" stroke="#fff" stroke-miterlimit="10"/><path d="M637,669.07l-2.13.91-5.77-13.45L623.36,670l-2.13-.91,6.84-16h2.13Z" transform="translate(-262.51 -543.89)" fill="#fff" stroke="#fff" stroke-miterlimit="10"/><path d="M666.5,654.9v14.63h-2.28V656.34l-5.7,3.57-5.7-3.57v13.19h-2.28V654.9l-.61-.38,1.21-1.9,7.38,4.63,7.37-4.63,1.21,1.9Z" transform="translate(-262.51 -543.89)" fill="#fff" stroke="#fff" stroke-miterlimit="10"/><path d="M681.06,652.43h2.28v1.14h6.84a4.61,4.61,0,0,1,4.56,4.56,4.44,4.44,0,0,1-1.56,3.42,4.57,4.57,0,0,1-3,8h-6.84v1.14h-2.28Zm2.28,3.42v4.56h6.84a2.17,2.17,0,0,0,1.61-.67,2.28,2.28,0,0,0-1.61-3.89Zm8.45,7.5a2.2,2.2,0,0,0-1.61-.66h-6.84v4.56h6.84a2.29,2.29,0,0,0,2.28-2.28A2.23,2.23,0,0,0,691.79,663.35Z" transform="translate(-262.51 -543.89)" fill="#fff" stroke="#fff" stroke-miterlimit="10"/><path d="M724,669.07l-2.13.91-5.77-13.45L710.36,670l-2.13-.91,6.84-16h2.13Z" transform="translate(-262.51 -543.89)" fill="#fff" stroke="#fff" stroke-miterlimit="10"/><path d="M745.44,670h-2.13l-6.84-16,2.08-.93,5.83,13.49,5.82-13.49,2.08.93Z" transform="translate(-262.51 -543.89)" fill="#fff" stroke="#fff" stroke-miterlimit="10"/><path d="M768.05,669.53h-2.27v-16h2.27Z" transform="translate(-262.51 -543.89)" fill="#fff" stroke="#fff" stroke-miterlimit="10"/><path d="M769.6,587.31c-.33.9-.63,1.74-.92,2.54a7.59,7.59,0,0,1-1,2c-.59.76-1.08,1.14-1.48,1.14s-.78-.57-.78-1.73a17.37,17.37,0,0,1,.72-4.35,15.08,15.08,0,0,0,.13-2.29,8.82,8.82,0,0,0-1.49-5.53,4.48,4.48,0,0,0-3.65-1.9,5.1,5.1,0,0,0-3.86,1.83,7.07,7.07,0,0,0-1.63,4.88,13.7,13.7,0,0,0,1.73,6.41,6.69,6.69,0,0,1,1.6,3.57c0,.89-.51,1.34-1.53,1.34a5.27,5.27,0,0,1-2.52-.8,8,8,0,0,1-2.46-2.23,6.66,6.66,0,0,1-1.24-3.29q-.06-.64-.06-1.86,0-6.57,2.81-9.95a8.67,8.67,0,0,1,6.8-3.33,9.73,9.73,0,0,1,4.65,1.17,9.52,9.52,0,0,1,3.58,3.41,9.15,9.15,0,0,1,1.36,4.94A12.76,12.76,0,0,1,769.6,587.31Z" transform="translate(-262.51 -543.89)" fill="#fff" stroke="#fff" stroke-miterlimit="10" stroke-width="0.2"/></svg>